<svg width="144" height="144" viewBox="0 0 144 144" fill="none" xmlns="http://www.w3.org/2000/svg">
<rect width="144" height="144" rx="32" fill="#FF6D1F"/>
<path d="M85.3806 86.6362V82.8972H85.367L85.3534 82.8973L85.3806 86.6362ZM107.891 99.9832L110.875 102.236L115.381 96.2677L112.397 94.015L110.144 96.9991L107.891 99.9832ZM59.7892 110.808L59.1216 114.487L59.7892 110.808ZM53.3061 98.1402L50.2385 96.0025L53.3061 98.1402ZM96.0387 84.4409L92.3401 83.8933L96.0387 84.4409ZM93.0905 92.0815L96.2222 94.1241L93.0905 92.0815ZM64.0708 64.817L61.7184 61.9108L64.0708 64.817ZM64.2944 65.3271L65.1561 68.9654L64.2944 65.3271ZM46.755 80.7145L50.494 80.7144C50.494 79.5148 50.3743 77.9144 50.2396 76.2084C50.1001 74.441 49.9327 72.4327 49.8025 70.23C49.5417 65.8187 49.4424 60.7962 50.0167 55.9628C50.5949 51.0966 51.8252 46.7068 54.0151 43.3714C56.122 40.1623 59.1953 37.7919 63.9419 36.9119L63.2603 33.2356L62.5788 29.5593C55.7203 30.8308 50.9279 34.4486 47.7641 39.2673C44.6833 43.9597 43.2379 49.6372 42.5911 55.0805C41.9403 60.5566 42.0666 66.0859 42.3376 70.6713C42.4733 72.9669 42.6484 75.0682 42.7849 76.7969C42.9262 78.5871 43.0161 79.8695 43.0161 80.7145L46.755 80.7145ZM73.4475 34.8424L71.5173 38.0446C74.1983 39.6607 75.6454 41.8036 75.2336 44.7527C74.7495 48.2196 71.6284 53.8893 61.7184 61.9108L64.0708 64.817L66.4232 67.7232C76.708 59.3983 81.7478 52.1739 82.6396 45.7868C83.6038 38.8818 79.6419 34.2107 75.3777 31.6403L73.4475 34.8424ZM64.2944 65.3271L65.1561 68.9654C71.4223 67.4813 79.3275 66.9226 85.0318 68.97C87.7831 69.9574 89.8186 71.473 91.0712 73.6062C92.3284 75.7473 93.0685 78.9737 92.3401 83.8933L96.0387 84.4409L99.7373 84.9885C100.642 78.879 99.8651 73.8144 97.5196 69.8199C95.1694 65.8173 91.5165 63.3525 87.558 61.9317C79.8426 59.1625 70.2426 60.076 63.4327 61.6888L64.2944 65.3271ZM93.0905 92.0815L89.9588 90.0389C87.0553 94.4905 82.79 99.4367 77.6283 102.918C72.5 106.377 66.7006 108.263 60.4568 107.129L59.7892 110.808L59.1216 114.487C67.8087 116.064 75.5667 113.328 81.8097 109.118C88.0194 104.929 92.9393 99.1575 96.2222 94.1241L93.0905 92.0815ZM53.3061 98.1402L56.3736 100.278C59.4481 95.8662 67.2509 90.507 85.4077 90.375L85.3806 86.6362L85.3534 82.8973C65.9026 83.0388 55.2412 88.8239 50.2385 96.0025L53.3061 98.1402ZM85.3806 86.6362V90.3751C89.404 90.3751 92.3323 90.8437 95.4844 92.1592C98.7559 93.5246 102.452 95.8769 107.891 99.9832L110.144 96.9991L112.397 94.015C106.854 89.831 102.542 87.0018 98.3645 85.2582C94.0674 83.4649 90.105 82.8972 85.3806 82.8972V86.6362ZM59.7892 110.808L60.4568 107.129C58.539 106.781 57 105.574 56.2376 104.172C55.518 102.848 55.5261 101.494 56.3736 100.278L53.3061 98.1402L50.2385 96.0025C47.5627 99.8422 47.7807 104.272 49.6677 107.743C51.5119 111.136 54.9761 113.735 59.1216 114.487L59.7892 110.808ZM96.0387 84.4409L92.3401 83.8933C92.0219 86.0419 91.1934 88.146 89.9588 90.0389L93.0905 92.0815L96.2222 94.1241C97.997 91.403 99.2486 88.2892 99.7373 84.9885L96.0387 84.4409ZM64.0708 64.817L61.7184 61.9108C60.0605 63.2528 59.9766 65.3003 60.5581 66.6477C61.1589 68.04 62.8689 69.5071 65.1561 68.9654L64.2944 65.3271L63.4327 61.6888C65.4358 61.2144 66.9205 62.5182 67.4239 63.6847C67.9078 64.8061 67.8542 66.5649 66.4232 67.7232L64.0708 64.817ZM63.2603 33.2356L63.9419 36.9119C66.6997 36.4006 69.4258 36.7839 71.5173 38.0446L73.4475 34.8424L75.3777 31.6403C71.4229 29.2564 66.7625 28.7837 62.5788 29.5593L63.2603 33.2356Z" fill="#6A2500"/>
</svg>
